<svg fill="none" id="comment" height="22" viewBox="0 0 22 22" width="22" xmlns="http://www.w3.org/2000/svg">
  <path
    d="M16.34 15.48V8.87998C16.3374 8.04536 16.0047 7.24568 15.4145 6.65551C14.8244 6.06534 14.0247 5.73262 13.19 5.72998H4.19005V4.87998C4.19002 3.6519 4.67581 2.47368 5.54138 1.6025C6.40695 0.731308 7.582 0.237904 8.81005 0.22998H17.05C18.2833 0.22998 19.4661 0.71989 20.3381 1.59193C21.2101 2.46398 21.7001 3.64672 21.7001 4.87998V10.88C21.6975 12.1029 21.2133 13.2756 20.3523 14.144C19.4913 15.0125 18.3229 15.5068 17.1 15.52L16.34 15.48ZM13.19 4.22998C14.4233 4.22998 15.6061 4.71989 16.4781 5.59193C17.3501 6.46398 17.84 7.64672 17.84 8.87998V13.88C18.5075 13.7071 19.0999 13.3201 19.5262 12.7781C19.9525 12.2362 20.1892 11.5694 20.2001 10.88V4.87998C20.1974 4.04536 19.8647 3.24568 19.2745 2.65551C18.6844 2.06534 17.8847 1.73262 17.05 1.72998H8.81005C8.08598 1.72909 7.38386 1.97847 6.82257 2.43588C6.26128 2.8933 5.87532 3.53064 5.73005 4.23998L13.19 4.22998ZM9.07005 21.77C8.74334 21.7716 8.42121 21.6931 8.13183 21.5415C7.84246 21.3898 7.59464 21.1696 7.41005 20.9L6.51005 19.63C6.47887 19.582 6.43574 19.5429 6.3849 19.5166C6.33406 19.4903 6.27725 19.4777 6.22005 19.48H5.00005C4.38521 19.4866 3.77516 19.3712 3.20521 19.1405C2.63526 18.9098 2.11673 18.5683 1.67963 18.1358C1.24253 17.7034 0.895535 17.1885 0.658731 16.6211C0.421926 16.0536 0.300013 15.4449 0.300049 14.83V8.87998C0.300013 8.2651 0.421926 7.65632 0.658731 7.08888C0.895535 6.52143 1.24253 6.00658 1.67963 5.57413C2.11673 5.14168 2.63526 4.80021 3.20521 4.56949C3.77516 4.33876 4.38521 4.22337 5.00005 4.22998H13.24C14.4733 4.22998 15.6561 4.71989 16.5281 5.59193C17.4001 6.46398 17.89 7.64672 17.89 8.87998V14.83C17.89 16.0632 17.4001 17.246 16.5281 18.118C15.6561 18.9901 14.4733 19.48 13.24 19.48H11.92C11.863 19.4786 11.8065 19.4917 11.7559 19.5179C11.7052 19.5441 11.6619 19.5827 11.63 19.63L10.73 20.9C10.5455 21.1696 10.2976 21.3898 10.0083 21.5415C9.71888 21.6931 9.39676 21.7716 9.07005 21.77ZM5.00005 5.72998C4.58256 5.72469 4.16816 5.80219 3.7808 5.958C3.39343 6.11381 3.04079 6.34484 2.74324 6.63775C2.44569 6.93065 2.20913 7.27961 2.04724 7.66447C1.88535 8.04933 1.80134 8.46246 1.80005 8.87998V14.83C1.79733 15.2496 1.87847 15.6655 2.0387 16.0533C2.19893 16.4411 2.43502 16.7929 2.73311 17.0882C3.0312 17.3835 3.38529 17.6163 3.77457 17.7729C4.16386 17.9294 4.58051 18.0066 5.00005 18H6.22005C6.51848 17.9985 6.81279 18.0697 7.07759 18.2073C7.3424 18.3449 7.56975 18.5449 7.74005 18.79L8.63005 20C8.67964 20.0707 8.74549 20.1285 8.82205 20.1685C8.89861 20.2086 8.98366 20.2296 9.07005 20.23C9.15644 20.2296 9.24149 20.2086 9.31805 20.1685C9.39461 20.1285 9.46045 20.0707 9.51005 20L10.4 18.73C10.5769 18.496 10.8071 18.3076 11.0715 18.1806C11.3359 18.0536 11.6268 17.9917 11.92 18H13.19C14.0255 18 14.8267 17.6681 15.4174 17.0774C16.0082 16.4866 16.34 15.6854 16.34 14.85V8.87998C16.3374 8.04536 16.0047 7.24568 15.4145 6.65551C14.8244 6.06534 14.0247 5.73262 13.19 5.72998H5.00005ZM5.58005 11C5.39413 11 5.2124 11.0551 5.05781 11.1584C4.90323 11.2617 4.78275 11.4085 4.7116 11.5803C4.64046 11.752 4.62184 11.941 4.65811 12.1234C4.69438 12.3057 4.78391 12.4732 4.91537 12.6047C5.04683 12.7361 5.21432 12.8256 5.39666 12.8619C5.57901 12.8982 5.76801 12.8796 5.93977 12.8084C6.11153 12.7373 6.25834 12.6168 6.36163 12.4622C6.46492 12.3076 6.52005 12.1259 6.52005 11.94C6.51745 11.6915 6.41758 11.4539 6.24185 11.2782C6.06613 11.1025 5.82855 11.0026 5.58005 11ZM9.08005 11C8.89596 10.9964 8.71489 11.047 8.55931 11.1455C8.40372 11.244 8.28048 11.3859 8.20488 11.5538C8.12928 11.7217 8.10464 11.9081 8.13403 12.0899C8.16342 12.2716 8.24554 12.4407 8.3702 12.5762C8.49486 12.7117 8.65657 12.8076 8.83525 12.8521C9.01394 12.8965 9.20173 12.8874 9.37532 12.826C9.54891 12.7647 9.70065 12.6537 9.81171 12.5068C9.92277 12.36 9.98826 12.1837 10 12C10.0068 11.8736 9.98816 11.7471 9.94531 11.628C9.90246 11.5089 9.83623 11.3995 9.75052 11.3063C9.66481 11.2132 9.56135 11.1381 9.44621 11.0855C9.33107 11.0329 9.20658 11.0038 9.08005 11ZM12.57 11C12.3841 11 12.2024 11.0551 12.0478 11.1584C11.8932 11.2617 11.7727 11.4085 11.7016 11.5803C11.6305 11.752 11.6118 11.941 11.6481 12.1234C11.6844 12.3057 11.7739 12.4732 11.9054 12.6047C12.0368 12.7361 12.2043 12.8256 12.3867 12.8619C12.569 12.8982 12.758 12.8796 12.9298 12.8084C13.1015 12.7373 13.2483 12.6168 13.3516 12.4622C13.4549 12.3076 13.51 12.1259 13.51 11.94C13.5074 11.6915 13.4076 11.4539 13.2319 11.2782C13.0561 11.1025 12.8185 11.0026 12.57 11Z"
    fill="currentColor"/>
</svg>
