<svg fill="none" height="24" id="home" viewBox="0 0 24 24" width="24" xmlns="http://www.w3.org/2000/svg">
  <path
    d="M20.5101 7.99997L14.7601 2.99997C13.9947 2.34244 13.0191 1.9809 12.0101 1.9809C11.0011 1.9809 10.0254 2.34244 9.26007 2.99997L3.50007 7.99997C3.02568 8.41484 2.64617 8.92698 2.38734 9.50158C2.12851 10.0762 1.99643 10.6998 2.00007 11.33V19.7C2.00002 20.3048 2.23822 20.8853 2.66309 21.3158C3.08795 21.7463 3.66529 21.9921 4.27007 22H7.67007C7.97499 22.0053 8.27791 21.9497 8.56104 21.8364C8.84417 21.723 9.10181 21.5543 9.31885 21.3401C9.53588 21.1258 9.70794 20.8704 9.82492 20.5887C9.9419 20.3071 10.0015 20.0049 10.0001 19.7V15.38C9.9922 14.8839 10.1577 14.4007 10.4681 14.0137C10.7784 13.6266 11.2142 13.3601 11.7001 13.26C11.9926 13.2033 12.2941 13.2127 12.5825 13.2875C12.8709 13.3623 13.139 13.5006 13.3671 13.6923C13.5952 13.884 13.7776 14.1242 13.901 14.3955C14.0243 14.6667 14.0855 14.9621 14.0801 15.26V19.7C14.0774 20.3022 14.312 20.8812 14.7331 21.3117C15.1542 21.7422 15.728 21.9895 16.3301 22H19.7301C20.3349 21.9921 20.9122 21.7463 21.3371 21.3158C21.7619 20.8853 22.0001 20.3048 22.0001 19.7V11.32C22.0022 10.6924 21.8704 10.0717 21.6135 9.49912C21.3565 8.92659 20.9804 8.41549 20.5101 7.99997Z"
    fill="currentColor"/>
</svg>
