<svg fill="none" id="like" height="24" viewBox="0 0 24 24" width="24" xmlns="http://www.w3.org/2000/svg">
  <path
    d="M12.36 21.8C11.967 21.7951 11.5791 21.71 11.22 21.55C8.88002 20.48 1.22002 16.43 1.35002 9.06C1.34884 7.55065 1.84765 6.08343 2.76853 4.88755C3.68941 3.69168 4.98048 2.83452 6.44002 2.45C7.41631 2.18927 8.43619 2.13463 9.43474 2.28958C10.4333 2.44453 11.3887 2.80566 12.24 3.35C12.2549 3.36407 12.2746 3.37191 12.295 3.37191C12.3155 3.37191 12.3352 3.36407 12.35 3.35C13.2758 2.75407 14.3252 2.37681 15.4185 2.24686C16.5118 2.11691 17.6203 2.23768 18.66 2.6C19.9845 3.07199 21.1325 3.93843 21.9496 5.08269C22.7666 6.22694 23.2135 7.59407 23.23 9C23.09 17.25 15.62 20.73 13.34 21.61C13.0275 21.7319 12.6955 21.7963 12.36 21.8ZM8.36002 3.71C7.84409 3.70912 7.33007 3.77295 6.83002 3.9C5.68144 4.19774 4.66473 4.86954 3.9404 5.80936C3.21608 6.74917 2.82539 7.90346 2.83002 9.09C2.72002 15.54 9.69002 19.21 11.83 20.18C11.9874 20.25 12.1578 20.2862 12.33 20.2862C12.5023 20.2862 12.6726 20.25 12.83 20.18C14.9 19.4 21.64 16.27 21.76 8.96C21.7364 7.8706 21.3837 6.81384 20.7483 5.92859C20.1129 5.04335 19.2246 4.37104 18.2 4C17.376 3.71559 16.4983 3.62093 15.6325 3.72309C14.7668 3.82525 13.9353 4.12159 13.2 4.59C12.9429 4.75822 12.6423 4.84782 12.335 4.84782C12.0278 4.84782 11.7272 4.75822 11.47 4.59C10.5355 3.99632 9.44704 3.69032 8.34002 3.71H8.36002Z"
    fill="currentColor"/>
</svg>
