<svg fill="none" height="24" id="magnifier" viewBox="0 0 24 24" width="24" xmlns="http://www.w3.org/2000/svg">
  <path
    d="M21.5699 19.41L18.3599 16.41C19.7241 14.5916 20.3548 12.3267 20.1269 10.065C19.899 7.80316 18.8291 5.70969 17.1297 4.19992C15.4302 2.69016 13.2252 1.87444 10.9524 1.91463C8.67946 1.95481 6.50474 2.84796 4.85968 4.41685C3.21463 5.98575 2.21947 8.11573 2.07167 10.3842C1.92387 12.6526 2.63424 14.8937 4.06181 16.6628C5.48938 18.4319 7.52983 19.5997 9.77829 19.9344C12.0267 20.2692 14.3189 19.7465 16.1999 18.47L19.4999 21.6C19.7742 21.8507 20.1286 21.996 20.4999 22.01C20.7052 22.0117 20.9086 21.9698 21.0965 21.8871C21.2844 21.8043 21.4526 21.6826 21.5899 21.53C21.7289 21.3901 21.8387 21.224 21.913 21.0413C21.9874 20.8586 22.0247 20.663 22.0228 20.4658C22.0209 20.2686 21.9799 20.0737 21.9022 19.8925C21.8245 19.7113 21.7115 19.5473 21.5699 19.41ZM11.0999 17.33C9.83496 17.328 8.59897 16.9512 7.54803 16.2472C6.49709 15.5432 5.67833 14.5436 5.19517 13.3746C4.71201 12.2055 4.58611 10.9195 4.83338 9.67898C5.08064 8.43843 5.68998 7.29898 6.58443 6.40453C7.47889 5.51007 8.61834 4.90074 9.85888 4.65347C11.0994 4.40621 12.3854 4.53211 13.5545 5.01527C14.7235 5.49843 15.7231 6.31718 16.4271 7.36812C17.1311 8.41906 17.5079 9.65506 17.5099 10.92C17.5099 11.7618 17.3441 12.5953 17.022 13.373C16.6998 14.1507 16.2277 14.8573 15.6325 15.4526C15.0372 16.0478 14.3306 16.5199 13.5529 16.8421C12.7752 17.1642 11.9417 17.33 11.0999 17.33Z"
    fill="currentColor"/>
</svg>
