<svg width="24" fill="none" height="24" id="message" viewBox="0 0 24 24" xmlns="http://www.w3.org/2000/svg">
  <path
    d="M17.14 2H6.86001C6.22094 2 5.58815 2.12604 4.99786 2.3709C4.40756 2.61576 3.87135 2.97464 3.41993 3.42699C2.96851 3.87935 2.61073 4.41629 2.36708 5.00709C2.12343 5.59788 1.9987 6.23093 2.00001 6.87V14.28C2.00001 15.569 2.51204 16.8051 3.42347 17.7165C4.3349 18.628 5.57106 19.14 6.86001 19.14H8.45001C8.6707 19.1393 8.8882 19.1927 9.08345 19.2956C9.27871 19.3984 9.44577 19.5476 9.57001 19.73L10.69 21.31C10.8376 21.5204 11.0337 21.6922 11.2617 21.8108C11.4897 21.9294 11.743 21.9914 12 21.9914C12.257 21.9914 12.5103 21.9294 12.7383 21.8108C12.9663 21.6922 13.1624 21.5204 13.31 21.31L14.43 19.73C14.5543 19.5476 14.7213 19.3984 14.9166 19.2956C15.1118 19.1927 15.3293 19.1393 15.55 19.14H17.14C18.429 19.14 19.6651 18.628 20.5765 17.7165C21.488 16.8051 22 15.569 22 14.28V6.87C22.0013 6.23093 21.8766 5.59788 21.6329 5.00709C21.3893 4.41629 21.0315 3.87935 20.5801 3.42699C20.1287 2.97464 19.5925 2.61576 19.0022 2.3709C18.4119 2.12604 17.7791 2 17.14 2ZM15.14 14.62H8.83001C8.6311 14.62 8.44033 14.541 8.29968 14.4003C8.15903 14.2597 8.08001 14.0689 8.08001 13.87C8.08001 13.6711 8.15903 13.4803 8.29968 13.3397C8.44033 13.199 8.6311 13.12 8.83001 13.12H15.17C15.3689 13.12 15.5597 13.199 15.7003 13.3397C15.841 13.4803 15.92 13.6711 15.92 13.87C15.92 14.0689 15.841 14.2597 15.7003 14.4003C15.5597 14.541 15.3689 14.62 15.17 14.62H15.14ZM16.73 9.62H7.24001C7.0411 9.62 6.85033 9.54098 6.70968 9.40033C6.56903 9.25968 6.49001 9.06891 6.49001 8.87C6.49001 8.67109 6.56903 8.48032 6.70968 8.33967C6.85033 8.19902 7.0411 8.12 7.24001 8.12H16.76C16.9589 8.12 17.1497 8.19902 17.2903 8.33967C17.431 8.48032 17.51 8.67109 17.51 8.87C17.51 9.06891 17.431 9.25968 17.2903 9.40033C17.1497 9.54098 16.9589 9.62 16.76 9.62H16.73Z"
    fill="currentColor"/>
</svg>
