<svg fill="none" id="setting" height="24" viewBox="0 0 24 24" width="24" xmlns="http://www.w3.org/2000/svg">
  <path
    d="M20.18 9.23999H18.79C18.5423 8.61792 18.2054 8.03516 17.79 7.50999L18.47 6.32999C18.7133 5.90385 18.7784 5.39884 18.651 4.92496C18.5237 4.45108 18.2142 4.04672 17.79 3.79999L16.16 2.85999C15.9493 2.73819 15.7167 2.65915 15.4754 2.62741C15.2341 2.59567 14.989 2.61185 14.7539 2.67502C14.5189 2.73818 14.2987 2.8471 14.1058 2.99553C13.9129 3.14395 13.7513 3.32897 13.63 3.53999L12.94 4.73999C12.6287 4.69308 12.3148 4.66636 12 4.65999C11.6855 4.66305 11.3715 4.68643 11.06 4.72999L10.39 3.53999C10.1486 3.11311 9.74748 2.79959 9.27493 2.66833C8.80239 2.53706 8.29706 2.59881 7.87003 2.83999L6.23003 3.76999C5.80316 4.01145 5.48963 4.41254 5.35837 4.88508C5.22711 5.35762 5.28885 5.86295 5.53003 6.28999L6.21003 7.49999C5.80055 8.0219 5.46412 8.5972 5.21003 9.20999H3.86003C3.61635 9.20599 3.37433 9.2507 3.14817 9.3415C2.92201 9.43231 2.71626 9.56737 2.54301 9.73876C2.36975 9.91015 2.23247 10.1144 2.13923 10.3396C2.04599 10.5648 1.99866 10.8063 2.00003 11.05V12.93C1.99871 13.1729 2.04526 13.4138 2.13702 13.6387C2.22877 13.8637 2.36394 14.0684 2.5348 14.2411C2.70566 14.4138 2.90887 14.5512 3.13282 14.6453C3.35677 14.7395 3.59708 14.7887 3.84003 14.79H5.21003C5.46062 15.4045 5.79732 15.9803 6.21003 16.5L5.52003 17.68C5.39846 17.8899 5.31961 18.1218 5.288 18.3623C5.25639 18.6028 5.27265 18.8472 5.33585 19.0814C5.39905 19.3156 5.50794 19.535 5.65625 19.727C5.80456 19.919 5.98936 20.0797 6.20003 20.2L7.83003 21.15C8.04072 21.2718 8.27337 21.3508 8.51465 21.3826C8.75593 21.4143 9.00111 21.3981 9.23613 21.335C9.47115 21.2718 9.6914 21.1629 9.88426 21.0144C10.0771 20.866 10.2388 20.681 10.36 20.47L11.05 19.27C11.3643 19.3185 11.682 19.3419 12 19.34C12.3345 19.3373 12.6685 19.314 13 19.27L13.68 20.45C13.8003 20.6607 13.961 20.8455 14.153 20.9938C14.345 21.1421 14.5644 21.251 14.7986 21.3142C15.0328 21.3774 15.2772 21.3936 15.5177 21.362C15.7582 21.3304 15.9901 21.2516 16.2 21.13L17.83 20.19C18.0415 20.0706 18.2273 19.9104 18.3766 19.7188C18.5259 19.5272 18.6358 19.308 18.7 19.0737C18.7641 18.8394 18.7812 18.5948 18.7503 18.3539C18.7195 18.1129 18.6412 17.8805 18.52 17.67L17.83 16.47C18.231 15.9603 18.5669 15.4027 18.83 14.81H20.18C20.6571 14.7975 21.1113 14.6031 21.4496 14.2666C21.788 13.9301 21.9849 13.4769 22 13V11.11C22.0054 10.621 21.8169 10.1499 21.4759 9.79944C21.1348 9.44903 20.6689 9.24789 20.18 9.23999ZM11.99 15.24C11.3468 15.24 10.7181 15.0491 10.1834 14.6916C9.64872 14.334 9.23216 13.8258 8.98647 13.2314C8.74079 12.6369 8.67701 11.983 8.80323 11.3523C8.92944 10.7215 9.23997 10.1425 9.69549 9.68835C10.151 9.23423 10.731 8.92549 11.3621 8.80122C11.9932 8.67695 12.647 8.74274 13.2407 8.99026C13.8344 9.23778 14.3413 9.65589 14.6972 10.1917C15.0531 10.7274 15.242 11.3568 15.24 12C15.24 12.8602 14.899 13.6854 14.2917 14.2946C13.6843 14.9038 12.8602 15.2473 12 15.25L11.99 15.24Z"
    fill="currentColor"/>
</svg>
