<svg fill="none" height="24" id="tg" viewBox="0 0 24 24" width="24" xmlns="http://www.w3.org/2000/svg">
  <path
    d="M19.81 2.10001L3.14999 8.00001C2.8333 8.11141 2.55613 8.31305 2.35266 8.58007C2.14919 8.84709 2.0283 9.16782 2.00491 9.50272C1.98152 9.83762 2.05665 10.172 2.22103 10.4647C2.38541 10.7575 2.63186 10.9957 2.92999 11.15L7.99999 13.83C8.24552 13.9571 8.52436 14.0052 8.79828 13.9676C9.0722 13.93 9.32779 13.8086 9.52999 13.62L15.37 8.15001C15.4269 8.07548 15.4979 8.01295 15.5791 7.96603C15.6603 7.91911 15.7499 7.88872 15.8429 7.87664C15.9359 7.86455 16.0303 7.871 16.1208 7.89561C16.2113 7.92021 16.2959 7.9625 16.37 8.02001C16.5161 8.13797 16.6112 8.30771 16.6354 8.49396C16.6596 8.6802 16.6111 8.86861 16.5 9.02001C16.4472 9.08092 16.3867 9.1347 16.32 9.18001L10.53 14.63C10.3154 14.8321 10.1728 15.0989 10.1241 15.3896C10.0753 15.6803 10.123 15.979 10.26 16.24L12.82 21.05C13.0291 21.4535 13.3895 21.7579 13.8223 21.8965C14.2552 22.0352 14.7253 21.9969 15.13 21.79C15.5089 21.5873 15.8006 21.2529 15.95 20.85L22 4.30001C22.1561 3.87548 22.1386 3.40657 21.9514 2.9948C21.7643 2.58304 21.4225 2.26157 21 2.10001C20.6157 1.96015 20.1943 1.96015 19.81 2.10001Z"
    fill="currentColor"/>
</svg>
