<svg fill="none" height="21" id="upload" viewBox="0 0 20 21" width="20" xmlns="http://www.w3.org/2000/svg">
  <path
    d="M14.73 5.06H11.73C11.209 5.05939 10.7001 4.90288 10.2688 4.6106C9.83757 4.31833 9.50362 3.90367 9.31 3.42L9 2.58C8.80638 2.09633 8.47243 1.68167 8.04115 1.3894C7.60987 1.09713 7.10099 0.940613 6.58 0.940002H4.58C3.36531 0.940002 2.20037 1.42254 1.34145 2.28145C0.482534 3.14037 0 4.30531 0 5.52V15.65C0.00261653 17.0408 0.554893 18.3741 1.53645 19.3594C2.518 20.3447 3.84924 20.9021 5.24 20.91H14.73C16.1277 20.91 17.4681 20.3548 18.4565 19.3665C19.4448 18.3781 20 17.0377 20 15.64V10.33C20 8.93231 19.4448 7.59187 18.4565 6.60355C17.4681 5.61523 16.1277 5.06 14.73 5.06ZM13.25 12.44C13.1265 12.5808 12.9529 12.6679 12.7662 12.6828C12.5795 12.6978 12.3943 12.6394 12.25 12.52L11.07 11.52V15.52C11.0493 15.6951 10.965 15.8564 10.8332 15.9735C10.7014 16.0906 10.5313 16.1553 10.355 16.1553C10.1787 16.1553 10.0086 16.0906 9.87677 15.9735C9.74499 15.8564 9.66074 15.6951 9.64 15.52V11.43L8.26 12.54C8.13052 12.638 7.9724 12.6907 7.81 12.69C7.70372 12.6904 7.59879 12.6662 7.50339 12.6194C7.40798 12.5726 7.32469 12.5043 7.26 12.42C7.2001 12.3477 7.15534 12.2642 7.12838 12.1743C7.10142 12.0844 7.09282 11.99 7.10308 11.8967C7.11334 11.8034 7.14226 11.7131 7.18811 11.6312C7.23397 11.5493 7.29582 11.4775 7.37 11.42L9.91 9.42L10.01 9.37H10.1C10.1693 9.35572 10.2407 9.35572 10.31 9.37C10.3989 9.37112 10.487 9.38805 10.57 9.42H10.65L10.77 9.49L13.13 11.49C13.2649 11.6048 13.352 11.766 13.3743 11.9417C13.3965 12.1175 13.3521 12.2952 13.25 12.44Z"
    fill="currentColor"/>
</svg>
